<?xml version="1.0" encoding="UTF-8" standalone="no"?><!DOCTYPE svg PUBLIC "-//W3C//DTD SVG 1.1//EN" "http://www.w3.org/Graphics/SVG/1.1/DTD/svg11.dtd"><svg width="100%" height="100%" viewBox="0 0 133 123" version="1.1" xmlns="http://www.w3.org/2000/svg" xmlns:xlink="http://www.w3.org/1999/xlink" xml:space="preserve" xmlns:serif="http://www.serif.com/" style="fill-rule:evenodd;clip-rule:evenodd;stroke-linejoin:round;stroke-miterlimit:1.41421;"><path d="M63.32,11.811c-1.121,-3.62 -4.059,-6.705 -8.092,-7.698l1.013,-4.113c0.046,0.011 0.091,0.022 0.136,0.033c4.57,1.16 8.356,4.504 10.286,8.81c2.55,-2.926 6.28,-4.883 10.46,-4.947c0.132,-0.001 0.265,-0.001 0.397,0l-0.034,4.235c-3.052,-0.025 -5.948,1.439 -7.857,3.785c26.267,1.856 47.58,21.275 51.664,46.273c0.234,-0.015 0.47,-0.023 0.707,-0.023c6.071,0 11,5.082 11,11.341c0,6.259 -4.929,11.341 -11,11.341c-0.605,0 -1.199,-0.051 -1.778,-0.148c-6.272,23.789 -28.408,41.388 -54.722,41.388c-26.26,0 -48.359,-17.527 -54.683,-41.242c-5.987,-0.1 -10.817,-5.143 -10.817,-11.339c0,-5.805 4.239,-10.597 9.698,-11.262c4.161,-25.641 26.446,-45.425 53.622,-46.434Zm26.582,80.725c-9.123,13.397 -34.167,15.031 -45.742,1.39c-0.474,-0.559 -1.089,-1.431 -1.089,-1.431l3.555,-2.302c7.241,11.18 28.891,12.227 38.84,1.111c0.399,-0.446 0.935,-1.152 0.935,-1.152c1.167,0.795 2.334,1.589 3.501,2.384Zm1.858,-32.308c3.698,0 6.701,3.003 6.701,6.701c0,3.699 -3.003,6.702 -6.701,6.702c-3.699,0 -6.702,-3.003 -6.702,-6.702c0,-3.698 3.003,-6.701 6.702,-6.701Zm-50.52,0c3.699,0 6.702,3.003 6.702,6.701c0,3.699 -3.003,6.702 -6.702,6.702c-3.698,0 -6.701,-3.003 -6.701,-6.702c0,-3.698 3.003,-6.701 6.701,-6.701Z" style="fill:#3c93f0;"/></svg>