<?xml version="1.0" encoding="UTF-8" standalone="no"?><!DOCTYPE svg PUBLIC "-//W3C//DTD SVG 1.1//EN" "http://www.w3.org/Graphics/SVG/1.1/DTD/svg11.dtd"><svg width="100%" height="100%" viewBox="0 0 34 27" version="1.1" xmlns="http://www.w3.org/2000/svg" xmlns:xlink="http://www.w3.org/1999/xlink" xml:space="preserve" xmlns:serif="http://www.serif.com/" style="fill-rule:evenodd;clip-rule:evenodd;stroke-linejoin:round;stroke-miterlimit:1.41421;"><path id="phone-classic" d="M16.792,0c-6.354,0 -12.119,2.491 -16.387,6.535c-0.252,0.252 -0.405,0.601 -0.405,0.993c0,0.392 0.153,0.743 0.405,0.995l3.472,3.47c0.252,0.252 0.601,0.405 0.993,0.405c0.378,0 0.727,-0.154 0.979,-0.391c1.105,-1.036 2.367,-1.904 3.724,-2.59c0.462,-0.224 0.782,-0.698 0.782,-1.258l0,-4.339c2.029,-0.672 4.198,-1.02 6.437,-1.02c2.239,0 4.41,0.348 6.439,1.006l0,4.34c0,0.545 0.32,1.034 0.782,1.258c1.372,0.685 2.619,1.567 3.738,2.589c0.252,0.252 0.601,0.391 0.979,0.391c0.392,0 0.741,-0.153 0.993,-0.405l3.472,-3.47c0.252,-0.252 0.405,-0.603 0.405,-0.995c0,-0.392 -0.169,-0.727 -0.421,-0.979c-4.268,-4.044 -10.034,-6.535 -16.387,-6.535Zm-4.192,5.597l0,4.2c0,0 -8.4,7 -8.4,11.2l0,5.6l25.2,0l0,-5.6c0,-4.2 -8.4,-11.2 -8.4,-11.2l0,-4.2l-2.8,0l0,2.8l-2.8,0l0,-2.8l-2.8,0Zm4.2,7c3.093,0 5.6,2.507 5.6,5.6c0,3.093 -2.507,5.6 -5.6,5.6c-3.093,0 -5.6,-2.507 -5.6,-5.6c0,-3.093 2.507,-5.6 5.6,-5.6Zm0,2.1c-1.933,0 -3.5,1.567 -3.5,3.5c0,1.933 1.567,3.5 3.5,3.5c1.933,0 3.5,-1.567 3.5,-3.5c0,-1.933 -1.567,-3.5 -3.5,-3.5Z" style="fill:#000;fill-rule:nonzero;"/></svg>