<?xml version="1.0" encoding="UTF-8" standalone="no"?><!DOCTYPE svg PUBLIC "-//W3C//DTD SVG 1.1//EN" "http://www.w3.org/Graphics/SVG/1.1/DTD/svg11.dtd"><svg width="100%" height="100%" viewBox="0 0 117 36" version="1.1" xmlns="http://www.w3.org/2000/svg" xmlns:xlink="http://www.w3.org/1999/xlink" xml:space="preserve" xmlns:serif="http://www.serif.com/" style="fill-rule:evenodd;clip-rule:evenodd;stroke-linejoin:round;stroke-miterlimit:1.41421;"><g><path d="M0,35.219l0,-17.505l6.533,0c1.447,0 2.712,0.23 3.797,0.691c1.085,0.46 1.993,1.084 2.725,1.873c0.731,0.789 1.282,1.714 1.651,2.774c0.37,1.06 0.555,2.19 0.555,3.39c0,1.331 -0.205,2.535 -0.616,3.612c-0.411,1.076 -0.999,1.997 -1.763,2.761c-0.764,0.764 -1.685,1.356 -2.761,1.775c-1.077,0.419 -2.273,0.629 -3.588,0.629l-6.533,0Zm11.144,-8.777c0,-0.773 -0.103,-1.475 -0.308,-2.108c-0.206,-0.633 -0.506,-1.179 -0.9,-1.64c-0.395,-0.46 -0.88,-0.813 -1.455,-1.06c-0.575,-0.246 -1.224,-0.369 -1.948,-0.369l-2.49,0l0,10.404l2.49,0c0.74,0 1.398,-0.132 1.973,-0.395c0.575,-0.263 1.056,-0.628 1.442,-1.097c0.386,-0.468 0.682,-1.019 0.888,-1.652c0.205,-0.633 0.308,-1.327 0.308,-2.083Z" style="fill:#fff;fill-rule:nonzero;"/><rect x="16.913" y="17.714" width="4.043" height="17.505" style="fill:#fff;fill-rule:nonzero;"/><path d="M28.328,17.714l3.649,0l6.385,17.505l-4.142,0l-1.356,-3.92l-5.448,0l-1.332,3.92l-4.142,0l6.386,-17.505Zm3.871,10.799l-2.047,-6.188l-2.095,6.188l4.142,0Z" style="fill:#fff;fill-rule:nonzero;"/><path d="M39.349,35.219l0,-17.505l4.043,0l0,13.955l8.481,0l0,3.55l-12.524,0Z" style="fill:#fff;fill-rule:nonzero;"/><path d="M59.59,35.367c-1.299,0 -2.482,-0.255 -3.55,-0.764c-1.069,-0.51 -1.981,-1.18 -2.737,-2.01c-0.756,-0.83 -1.344,-1.779 -1.763,-2.847c-0.419,-1.069 -0.628,-2.17 -0.628,-3.304c0,-1.151 0.217,-2.26 0.653,-3.328c0.435,-1.069 1.044,-2.01 1.824,-2.823c0.781,-0.814 1.706,-1.463 2.774,-1.948c1.068,-0.485 2.235,-0.727 3.501,-0.727c1.298,0 2.482,0.254 3.55,0.764c1.068,0.509 1.981,1.183 2.737,2.022c0.756,0.838 1.339,1.791 1.75,2.86c0.411,1.068 0.617,2.153 0.617,3.254c0,1.15 -0.218,2.26 -0.654,3.328c-0.435,1.069 -1.039,2.01 -1.812,2.823c-0.772,0.814 -1.693,1.467 -2.761,1.96c-1.069,0.493 -2.236,0.74 -3.501,0.74Zm-4.561,-8.876c0,0.674 0.098,1.328 0.296,1.96c0.197,0.633 0.489,1.196 0.875,1.689c0.386,0.493 0.867,0.888 1.442,1.184c0.575,0.295 1.233,0.443 1.973,0.443c0.772,0 1.446,-0.156 2.021,-0.468c0.575,-0.312 1.052,-0.719 1.43,-1.22c0.378,-0.502 0.662,-1.069 0.851,-1.702c0.189,-0.632 0.283,-1.278 0.283,-1.935c0,-0.674 -0.098,-1.327 -0.296,-1.96c-0.197,-0.633 -0.493,-1.192 -0.887,-1.677c-0.395,-0.484 -0.875,-0.871 -1.442,-1.158c-0.567,-0.288 -1.221,-0.432 -1.96,-0.432c-0.773,0 -1.443,0.152 -2.01,0.456c-0.567,0.304 -1.044,0.703 -1.43,1.196c-0.386,0.493 -0.674,1.056 -0.863,1.689c-0.189,0.633 -0.283,1.278 -0.283,1.935Z" style="fill:#fff;fill-rule:nonzero;"/><path d="M81.952,33.493c-1.332,1.233 -2.869,1.849 -4.611,1.849c-1.15,0 -2.235,-0.218 -3.254,-0.653c-1.019,-0.436 -1.911,-1.048 -2.675,-1.837c-0.765,-0.789 -1.369,-1.738 -1.812,-2.847c-0.444,-1.11 -0.666,-2.33 -0.666,-3.662c0,-1.199 0.222,-2.334 0.666,-3.402c0.443,-1.068 1.056,-1.997 1.836,-2.786c0.781,-0.789 1.706,-1.413 2.774,-1.874c1.068,-0.46 2.219,-0.69 3.452,-0.69c1.627,0 3.049,0.341 4.265,1.023c1.216,0.682 2.128,1.615 2.736,2.798l-3.007,2.269c-0.395,-0.789 -0.966,-1.402 -1.714,-1.837c-0.748,-0.436 -1.557,-0.653 -2.428,-0.653c-0.674,0 -1.286,0.135 -1.837,0.406c-0.551,0.272 -1.023,0.65 -1.418,1.134c-0.394,0.485 -0.698,1.048 -0.912,1.689c-0.214,0.641 -0.32,1.332 -0.32,2.071c0,0.756 0.115,1.455 0.345,2.096c0.23,0.641 0.55,1.196 0.961,1.664c0.411,0.469 0.9,0.834 1.467,1.097c0.567,0.263 1.196,0.395 1.886,0.395c1.578,0 3,-0.732 4.266,-2.195l0,-0.542l-3.403,0l0,-2.934l6.756,0l0,9.147l-3.353,0l0,-1.726Z" style="fill:#fff;fill-rule:nonzero;"/><path d="M99.53,31.669l0,3.55l-12.302,0l0,-17.505l12.08,0l0,3.551l-8.037,0l0,3.402l6.903,0l0,3.279l-6.903,0l0,3.723l8.259,0Z" style="fill:#fff;fill-rule:nonzero;"/><path d="M105.299,25.209l0,10.01l-4.043,0l0,-17.505l3.156,0l8.16,10.281l0,-10.281l4.044,0l0,17.505l-3.255,0l-8.062,-10.01Z" style="fill:#fff;fill-rule:nonzero;"/><path d="M2.79,10.889c0,-0.063 0.012,-0.131 0.038,-0.204c0.025,-0.073 0.06,-0.142 0.104,-0.209c0.044,-0.066 0.098,-0.121 0.161,-0.166c0.064,-0.044 0.13,-0.066 0.199,-0.066c0,0.411 0.073,0.735 0.219,0.972c0.145,0.237 0.346,0.419 0.602,0.546c0.256,0.126 0.548,0.211 0.877,0.256c0.329,0.044 0.683,0.076 1.063,0.095c0.126,-0.007 0.292,-0.012 0.498,-0.015c0.205,-0.003 0.403,-0.025 0.592,-0.066c0.19,-0.041 0.351,-0.109 0.484,-0.204c0.133,-0.095 0.196,-0.24 0.19,-0.436c0,-0.089 -0.003,-0.168 -0.01,-0.237c-0.006,-0.07 -0.02,-0.132 -0.042,-0.185c-0.022,-0.054 -0.06,-0.106 -0.114,-0.157c-0.054,-0.051 -0.128,-0.101 -0.223,-0.152l-2.817,-1.536c-0.101,-0.057 -0.199,-0.128 -0.294,-0.214c-0.095,-0.085 -0.174,-0.18 -0.237,-0.284c-0.064,-0.105 -0.114,-0.215 -0.152,-0.332c-0.038,-0.117 -0.057,-0.233 -0.057,-0.346c0,-0.241 0.065,-0.437 0.194,-0.588c0.13,-0.152 0.291,-0.274 0.484,-0.366c0.193,-0.091 0.402,-0.156 0.626,-0.194c0.225,-0.038 0.432,-0.057 0.622,-0.057c0.088,0 0.202,0.008 0.341,0.024c0.139,0.016 0.288,0.039 0.446,0.071c0.158,0.031 0.314,0.073 0.469,0.123c0.155,0.051 0.293,0.116 0.413,0.195c0.12,0.079 0.22,0.17 0.299,0.275c0.079,0.104 0.118,0.226 0.118,0.365c-0.088,0.05 -0.178,0.066 -0.27,0.047c-0.092,-0.019 -0.185,-0.053 -0.28,-0.104c-0.095,-0.051 -0.193,-0.108 -0.294,-0.171c-0.101,-0.063 -0.205,-0.126 -0.313,-0.19c-0.107,-0.063 -0.221,-0.113 -0.341,-0.151c-0.121,-0.038 -0.247,-0.051 -0.38,-0.038c-0.12,0 -0.275,0.006 -0.465,0.019c-0.189,0.012 -0.374,0.042 -0.554,0.09c-0.181,0.047 -0.336,0.12 -0.465,0.218c-0.13,0.098 -0.195,0.236 -0.195,0.413c0,0.17 0.06,0.327 0.181,0.469c0.12,0.142 0.283,0.278 0.488,0.408c0.206,0.13 0.436,0.253 0.692,0.37c0.257,0.117 0.516,0.237 0.778,0.36c0.263,0.124 0.519,0.252 0.768,0.384c0.25,0.133 0.468,0.279 0.655,0.437c0.187,0.158 0.332,0.327 0.436,0.507c0.105,0.18 0.141,0.384 0.109,0.612c-0.031,0.228 -0.129,0.424 -0.294,0.588c-0.164,0.165 -0.373,0.293 -0.626,0.384c-0.253,0.092 -0.534,0.152 -0.844,0.18c-0.31,0.029 -0.629,0.027 -0.958,-0.004c-0.329,-0.032 -0.654,-0.092 -0.977,-0.18c-0.322,-0.089 -0.616,-0.208 -0.882,-0.356c-0.266,-0.149 -0.493,-0.323 -0.683,-0.522c-0.19,-0.199 -0.316,-0.425 -0.379,-0.678Z" style="fill:#fff;fill-rule:nonzero;"/><path d="M8.879,11.335c0,-0.399 0.07,-0.734 0.209,-1.006c0.139,-0.272 0.324,-0.49 0.555,-0.654c0.231,-0.165 0.499,-0.285 0.806,-0.361c0.307,-0.075 0.628,-0.113 0.963,-0.113c0.272,0 0.536,0.044 0.792,0.132c0.256,0.089 0.485,0.212 0.687,0.37c0.203,0.158 0.364,0.351 0.484,0.579c0.12,0.228 0.18,0.487 0.18,0.778c0,0.253 -0.047,0.46 -0.142,0.621c-0.095,0.161 -0.224,0.288 -0.389,0.379c-0.164,0.092 -0.346,0.157 -0.545,0.195c-0.199,0.038 -0.403,0.057 -0.612,0.057c-0.202,0 -0.409,-0.01 -0.621,-0.029c-0.212,-0.019 -0.407,-0.063 -0.584,-0.133c-0.177,-0.069 -0.322,-0.173 -0.436,-0.313c-0.114,-0.139 -0.171,-0.335 -0.171,-0.588c0.133,0 0.261,0.027 0.384,0.081c0.124,0.054 0.249,0.111 0.375,0.171c0.127,0.06 0.253,0.115 0.38,0.166c0.12,0.057 0.249,0.085 0.388,0.085c0.102,0 0.236,-0.009 0.404,-0.028c0.167,-0.019 0.325,-0.056 0.474,-0.109c0.148,-0.054 0.276,-0.128 0.384,-0.223c0.107,-0.095 0.161,-0.215 0.161,-0.361c0,-0.215 -0.047,-0.401 -0.142,-0.559c-0.095,-0.158 -0.218,-0.29 -0.37,-0.394c-0.152,-0.104 -0.323,-0.185 -0.512,-0.242c-0.19,-0.057 -0.38,-0.085 -0.569,-0.085c-0.026,0 -0.087,0.006 -0.185,0.019c-0.098,0.012 -0.211,0.033 -0.337,0.061c-0.126,0.029 -0.259,0.064 -0.398,0.105c-0.14,0.041 -0.268,0.091 -0.385,0.151c-0.117,0.061 -0.213,0.129 -0.289,0.204c-0.076,0.076 -0.114,0.162 -0.114,0.256l0,0.114c0.007,0.07 0.015,0.163 0.024,0.28c0.01,0.117 0.017,0.234 0.024,0.351c0.006,0.117 0.016,0.22 0.028,0.308c0.013,0.089 0.019,0.139 0.019,0.152c0.013,0.101 0.035,0.258 0.067,0.47c0.031,0.211 0.066,0.449 0.104,0.711c0.038,0.262 0.081,0.539 0.128,0.83c0.047,0.291 0.093,0.567 0.138,0.83c0.044,0.262 0.083,0.498 0.118,0.706c0.035,0.209 0.062,0.361 0.081,0.456c0,0.012 0.001,0.023 0.004,0.033c0.004,0.009 0.005,0.017 0.005,0.024c0,0.006 0,0.009 0,0.009l-0.009,0.019l0,0.019c-0.013,0.019 -0.041,0.051 -0.086,0.095c-0.05,0.038 -0.082,0.063 -0.095,0.076l-0.056,0c-0.064,0 -0.13,-0.059 -0.2,-0.176c-0.069,-0.117 -0.14,-0.275 -0.213,-0.474c-0.073,-0.199 -0.145,-0.428 -0.218,-0.688c-0.073,-0.259 -0.144,-0.528 -0.214,-0.806c-0.069,-0.278 -0.132,-0.553 -0.189,-0.825c-0.057,-0.272 -0.108,-0.525 -0.152,-0.759c-0.044,-0.234 -0.078,-0.436 -0.1,-0.607c-0.022,-0.171 -0.033,-0.291 -0.033,-0.36Z" style="fill:#fff;fill-rule:nonzero;"/><path d="M14.798,12.577c-0.139,-0.253 -0.259,-0.528 -0.361,-0.825c-0.101,-0.297 -0.186,-0.597 -0.256,-0.901c-0.069,-0.304 -0.125,-0.599 -0.166,-0.887c-0.041,-0.288 -0.068,-0.548 -0.08,-0.782c0,-0.045 -0.003,-0.094 -0.01,-0.147c-0.006,-0.054 -0.008,-0.109 -0.005,-0.166c0.004,-0.057 0.013,-0.111 0.029,-0.162c0.016,-0.05 0.043,-0.094 0.081,-0.132l0.018,0c0.007,0 0.01,-0.002 0.01,-0.005c0,-0.003 0.003,-0.005 0.009,-0.005c0.007,0 0.01,0.002 0.01,0.005c0,0.003 0.006,0.005 0.019,0.005l0.019,0c0.013,0.006 0.044,0.019 0.095,0.038c0.05,0.019 0.082,0.034 0.095,0.047c0.113,-0.038 0.23,-0.084 0.351,-0.138c0.12,-0.053 0.241,-0.104 0.365,-0.151c0.123,-0.048 0.248,-0.087 0.374,-0.119c0.127,-0.032 0.25,-0.047 0.37,-0.047c0.089,0 0.166,0.003 0.233,0.009c0.066,0.006 0.132,0.018 0.199,0.033c0.066,0.016 0.137,0.035 0.213,0.057c0.076,0.022 0.165,0.049 0.266,0.081c0.05,0.038 0.096,0.074 0.137,0.109c0.041,0.035 0.079,0.074 0.114,0.119c0.035,0.044 0.062,0.098 0.081,0.161c0.019,0.063 0.028,0.145 0.028,0.246c-0.101,0.013 -0.219,0.005 -0.355,-0.023c-0.136,-0.029 -0.279,-0.065 -0.427,-0.109c-0.149,-0.045 -0.302,-0.083 -0.46,-0.114c-0.158,-0.032 -0.31,-0.044 -0.456,-0.038c-0.145,0.006 -0.281,0.047 -0.407,0.123c-0.133,0.063 -0.25,0.177 -0.351,0.342c-0.045,0.183 -0.064,0.363 -0.057,0.54c0.006,0.177 0.028,0.35 0.066,0.517c0.038,0.168 0.087,0.335 0.147,0.503c0.06,0.167 0.117,0.335 0.171,0.503c0.054,0.167 0.103,0.333 0.147,0.498c0.044,0.164 0.073,0.332 0.085,0.502c0,0.064 -0.034,0.131 -0.104,0.204c-0.07,0.073 -0.149,0.109 -0.237,0.109Z" style="fill:#fff;fill-rule:nonzero;"/><path d="M18.658,7.085c0,-0.139 0.032,-0.26 0.095,-0.365c0.063,-0.104 0.146,-0.191 0.247,-0.261c0.101,-0.069 0.215,-0.123 0.341,-0.161c0.127,-0.038 0.253,-0.057 0.38,-0.057c0.101,0 0.196,0.029 0.284,0.086c0.089,0.057 0.165,0.125 0.228,0.204c0.063,0.079 0.114,0.164 0.152,0.256c0.037,0.091 0.056,0.178 0.056,0.261c0,0.126 -0.028,0.241 -0.085,0.346c-0.057,0.104 -0.13,0.191 -0.218,0.261c-0.089,0.069 -0.19,0.123 -0.304,0.161c-0.031,0.012 -0.063,0.022 -0.094,0.028c0.088,0.038 0.173,0.079 0.256,0.124c0.227,0.126 0.438,0.287 0.63,0.483c0.193,0.196 0.362,0.422 0.508,0.678c0.145,0.257 0.267,0.522 0.365,0.797c0.098,0.275 0.163,0.552 0.194,0.83c0.038,0.291 0.042,0.563 0.01,0.816c-0.006,0 -0.025,-0.002 -0.057,-0.005c-0.032,-0.003 -0.066,-0.006 -0.104,-0.009c-0.038,-0.004 -0.073,-0.008 -0.105,-0.015l-0.038,-0.009c-0.132,-0.297 -0.281,-0.538 -0.445,-0.721c-0.165,-0.183 -0.328,-0.327 -0.489,-0.431c-0.161,-0.105 -0.311,-0.178 -0.45,-0.219c-0.14,-0.041 -0.253,-0.071 -0.342,-0.09c-0.095,0 -0.207,0.007 -0.337,0.019c-0.129,0.013 -0.264,0.035 -0.403,0.067c-0.139,0.031 -0.28,0.074 -0.422,0.128c-0.142,0.053 -0.269,0.118 -0.379,0.194c-0.111,0.076 -0.199,0.166 -0.266,0.27c-0.066,0.105 -0.099,0.226 -0.099,0.366c0,0.151 0.06,0.279 0.18,0.384c0.12,0.104 0.265,0.189 0.436,0.256c0.171,0.066 0.345,0.112 0.522,0.137c0.177,0.026 0.319,0.038 0.427,0.038c0.177,0 0.351,-0.009 0.521,-0.028c0.171,-0.019 0.34,-0.041 0.508,-0.067c0.167,-0.025 0.333,-0.047 0.498,-0.066c0.164,-0.019 0.329,-0.028 0.493,-0.028l0.066,0c0.032,0 0.065,0.001 0.1,0.004c0.035,0.004 0.065,0.005 0.09,0.005l0.066,0c0.051,0.019 0.08,0.048 0.086,0.085c0.006,0.038 0.009,0.076 0.009,0.114c0,0.038 -0.039,0.079 -0.118,0.124c-0.079,0.044 -0.182,0.088 -0.309,0.132c-0.126,0.045 -0.267,0.09 -0.422,0.138c-0.155,0.047 -0.303,0.087 -0.445,0.118c-0.143,0.032 -0.275,0.059 -0.399,0.081c-0.123,0.022 -0.21,0.033 -0.261,0.033c-0.265,0 -0.547,-0.022 -0.844,-0.066c-0.297,-0.044 -0.569,-0.125 -0.815,-0.242c-0.247,-0.117 -0.451,-0.28 -0.612,-0.488c-0.162,-0.209 -0.242,-0.478 -0.242,-0.807c0.006,-0.107 0.038,-0.23 0.095,-0.37c0.057,-0.139 0.145,-0.275 0.265,-0.407c0.12,-0.133 0.272,-0.252 0.456,-0.356c0.183,-0.104 0.4,-0.179 0.649,-0.223c0.25,-0.044 0.535,-0.047 0.854,-0.01c0.319,0.038 0.675,0.133 1.067,0.285c0,-0.006 0,-0.038 0,-0.095l-0.009,-0.085c0,-0.165 -0.048,-0.332 -0.143,-0.503c-0.095,-0.171 -0.216,-0.324 -0.365,-0.46c-0.149,-0.136 -0.308,-0.247 -0.479,-0.332c-0.171,-0.085 -0.335,-0.128 -0.493,-0.128c-0.063,0 -0.119,0.01 -0.166,0.029c-0.048,0.018 -0.093,0.042 -0.138,0.071c-0.044,0.028 -0.087,0.053 -0.128,0.076c-0.041,0.022 -0.09,0.033 -0.147,0.033c-0.012,0 -0.019,-0.003 -0.019,-0.01c-0.006,-0.006 -0.012,-0.012 -0.019,-0.019c-0.012,-0.012 -0.03,-0.028 -0.052,-0.047c-0.022,-0.019 -0.033,-0.032 -0.033,-0.038c0,-0.114 0.021,-0.212 0.062,-0.294c0.041,-0.082 0.098,-0.149 0.17,-0.199c0.073,-0.051 0.154,-0.089 0.242,-0.114l0.057,-0.019c-0.05,-0.025 -0.095,-0.057 -0.133,-0.095c-0.158,-0.145 -0.237,-0.338 -0.237,-0.579Zm0.304,0.01c0,0.158 0.047,0.277 0.142,0.356c0.095,0.079 0.225,0.118 0.389,0.118c0.044,0.007 0.101,-0.005 0.171,-0.033c0.069,-0.028 0.137,-0.065 0.204,-0.109c0.066,-0.044 0.123,-0.101 0.17,-0.171c0.048,-0.069 0.07,-0.142 0.067,-0.218c-0.003,-0.076 -0.04,-0.153 -0.109,-0.232c-0.07,-0.079 -0.187,-0.154 -0.351,-0.223c-0.089,0 -0.174,0.008 -0.256,0.023c-0.083,0.016 -0.155,0.045 -0.219,0.086c-0.063,0.041 -0.113,0.093 -0.151,0.156c-0.038,0.064 -0.057,0.146 -0.057,0.247Z" style="fill:#fff;fill-rule:nonzero;"/><path d="M22.509,12.302c0,-0.012 0.003,-0.046 0.01,-0.099c0.006,-0.054 0.015,-0.113 0.028,-0.176c0.013,-0.063 0.022,-0.122 0.029,-0.175c0.006,-0.054 0.009,-0.087 0.009,-0.1c0,-0.013 0,-0.046 0,-0.1c0,-0.053 0.002,-0.115 0.005,-0.184c0.003,-0.07 0.005,-0.143 0.005,-0.219l0,-0.322c0,-0.063 -0.002,-0.128 -0.005,-0.195c-0.003,-0.066 -0.005,-0.123 -0.005,-0.17c0,-0.048 0,-0.075 0,-0.081c-0.019,-0.291 -0.055,-0.599 -0.109,-0.925c-0.054,-0.325 -0.111,-0.649 -0.171,-0.972c-0.06,-0.322 -0.117,-0.639 -0.171,-0.948c-0.053,-0.31 -0.093,-0.595 -0.118,-0.854c0.057,-0.152 0.118,-0.204 0.185,-0.157c0.066,0.048 0.134,0.16 0.204,0.337c0.069,0.177 0.139,0.397 0.208,0.659c0.07,0.263 0.132,0.53 0.185,0.802c0.054,0.272 0.103,0.528 0.147,0.768c0.038,0.24 0.07,0.427 0.095,0.56c0.013,0.012 0.037,0.019 0.071,0.019c0.035,0 0.059,0 0.072,0c0.126,0 0.237,-0.038 0.332,-0.114c0.094,-0.076 0.185,-0.172 0.27,-0.289c0.085,-0.117 0.169,-0.244 0.251,-0.38c0.082,-0.136 0.168,-0.261 0.256,-0.374c0.089,-0.114 0.187,-0.211 0.294,-0.29c0.108,-0.079 0.231,-0.118 0.37,-0.118c0.089,0 0.143,0.027 0.162,0.08c0.019,0.054 0.025,0.116 0.019,0.185c-0.089,0.07 -0.19,0.162 -0.304,0.275c-0.114,0.114 -0.236,0.237 -0.365,0.37c-0.13,0.133 -0.259,0.272 -0.389,0.418c-0.13,0.145 -0.244,0.286 -0.342,0.422c-0.098,0.136 -0.18,0.267 -0.246,0.393c-0.067,0.127 -0.1,0.237 -0.1,0.332c0,0.139 0.046,0.266 0.138,0.38c0.091,0.114 0.208,0.218 0.351,0.313c0.142,0.095 0.302,0.175 0.479,0.242c0.177,0.066 0.354,0.123 0.531,0.17c0.177,0.048 0.345,0.084 0.503,0.109c0.151,0.026 0.278,0.038 0.379,0.038c0.057,0.013 0.089,0.045 0.095,0.095c0.006,0.051 0.009,0.098 0.009,0.142c0,0.095 -0.03,0.165 -0.09,0.209c-0.06,0.044 -0.133,0.076 -0.218,0.095c-0.085,0.019 -0.174,0.028 -0.266,0.028c-0.091,0 -0.169,0 -0.232,0c-0.139,0 -0.299,-0.044 -0.479,-0.132c-0.18,-0.089 -0.354,-0.185 -0.522,-0.29c-0.167,-0.104 -0.314,-0.2 -0.441,-0.289c-0.126,-0.088 -0.215,-0.133 -0.265,-0.133c-0.101,0 -0.169,0.049 -0.204,0.147c-0.035,0.098 -0.059,0.204 -0.071,0.318c-0.013,0.114 -0.033,0.22 -0.062,0.318c-0.028,0.098 -0.09,0.147 -0.185,0.147c-0.082,0 -0.158,-0.022 -0.228,-0.067c-0.069,-0.044 -0.104,-0.117 -0.104,-0.218Z" style="fill:#fff;fill-rule:nonzero;"/><path d="M27.242,9.314c-0.05,0 -0.139,0 -0.265,0c-0.127,0 -0.258,-0.011 -0.394,-0.033c-0.136,-0.022 -0.259,-0.058 -0.37,-0.109c-0.111,-0.05 -0.166,-0.123 -0.166,-0.218c0,-0.025 0.005,-0.062 0.014,-0.109c0.01,-0.047 0.04,-0.071 0.09,-0.071l0.977,-0.086c0.026,-0.234 0.045,-0.425 0.057,-0.573c0.013,-0.149 0.016,-0.288 0.01,-0.418c-0.007,-0.129 -0.014,-0.265 -0.024,-0.408c-0.009,-0.142 -0.017,-0.327 -0.024,-0.554c0,-0.045 0.01,-0.08 0.029,-0.105c0.019,-0.025 0.042,-0.044 0.071,-0.057c0.028,-0.012 0.06,-0.022 0.095,-0.028c0.035,-0.007 0.061,-0.01 0.08,-0.01c0.038,0 0.078,0.013 0.119,0.038c0.041,0.026 0.077,0.057 0.109,0.095c0.032,0.038 0.057,0.078 0.076,0.119c0.019,0.041 0.028,0.08 0.028,0.118l0.076,1.774l0.816,0.038c0.107,-0.013 0.207,0.008 0.299,0.062c0.091,0.053 0.14,0.153 0.147,0.298c-0.076,0.083 -0.168,0.132 -0.275,0.147c-0.108,0.016 -0.22,0.022 -0.337,0.019c-0.117,-0.003 -0.232,-0.003 -0.346,0c-0.114,0.003 -0.215,0.033 -0.304,0.09c0,0.038 0.003,0.143 0.01,0.313c0.006,0.171 0.012,0.373 0.019,0.607c0.006,0.234 0.014,0.484 0.023,0.75c0.01,0.265 0.018,0.51 0.024,0.735c0.006,0.224 0.011,0.416 0.014,0.574c0.004,0.158 0.005,0.246 0.005,0.265c-0.145,0.089 -0.262,0.081 -0.351,-0.023c-0.088,-0.105 -0.159,-0.26 -0.213,-0.465c-0.054,-0.206 -0.092,-0.446 -0.114,-0.721c-0.022,-0.275 -0.035,-0.547 -0.038,-0.816c-0.003,-0.269 -0.002,-0.517 0.005,-0.744c0.006,-0.228 0.016,-0.392 0.028,-0.494Z" style="fill:#fff;fill-rule:nonzero;"/><path d="M30.183,12.577c-0.14,-0.253 -0.26,-0.528 -0.361,-0.825c-0.101,-0.297 -0.186,-0.597 -0.256,-0.901c-0.07,-0.304 -0.125,-0.599 -0.166,-0.887c-0.041,-0.288 -0.068,-0.548 -0.081,-0.782c0,-0.045 -0.003,-0.094 -0.009,-0.147c-0.006,-0.054 -0.008,-0.109 -0.005,-0.166c0.003,-0.057 0.013,-0.111 0.029,-0.162c0.015,-0.05 0.042,-0.094 0.08,-0.132l0.019,0c0.007,0 0.01,-0.002 0.01,-0.005c0,-0.003 0.003,-0.005 0.009,-0.005c0.007,0 0.01,0.002 0.01,0.005c0,0.003 0.006,0.005 0.019,0.005l0.019,0c0.012,0.006 0.044,0.019 0.094,0.038c0.051,0.019 0.083,0.034 0.095,0.047c0.114,-0.038 0.231,-0.084 0.351,-0.138c0.12,-0.053 0.242,-0.104 0.365,-0.151c0.124,-0.048 0.249,-0.087 0.375,-0.119c0.127,-0.032 0.25,-0.047 0.37,-0.047c0.089,0 0.166,0.003 0.232,0.009c0.067,0.006 0.133,0.018 0.2,0.033c0.066,0.016 0.137,0.035 0.213,0.057c0.076,0.022 0.164,0.049 0.266,0.081c0.05,0.038 0.096,0.074 0.137,0.109c0.041,0.035 0.079,0.074 0.114,0.119c0.035,0.044 0.062,0.098 0.081,0.161c0.019,0.063 0.028,0.145 0.028,0.246c-0.101,0.013 -0.22,0.005 -0.356,-0.023c-0.136,-0.029 -0.278,-0.065 -0.426,-0.109c-0.149,-0.045 -0.302,-0.083 -0.461,-0.114c-0.158,-0.032 -0.309,-0.044 -0.455,-0.038c-0.145,0.006 -0.281,0.047 -0.408,0.123c-0.132,0.063 -0.249,0.177 -0.351,0.342c-0.044,0.183 -0.063,0.363 -0.057,0.54c0.007,0.177 0.029,0.35 0.067,0.517c0.038,0.168 0.087,0.335 0.147,0.503c0.06,0.167 0.117,0.335 0.171,0.503c0.053,0.167 0.102,0.333 0.147,0.498c0.044,0.164 0.072,0.332 0.085,0.502c0,0.064 -0.035,0.131 -0.104,0.204c-0.07,0.073 -0.149,0.109 -0.237,0.109Z" style="fill:#fff;fill-rule:nonzero;"/><path d="M32.687,10.974c0.006,-0.107 0.038,-0.23 0.094,-0.37c0.057,-0.139 0.146,-0.275 0.266,-0.407c0.12,-0.133 0.272,-0.252 0.455,-0.356c0.184,-0.104 0.4,-0.179 0.65,-0.223c0.25,-0.044 0.534,-0.047 0.854,-0.01c0.319,0.038 0.675,0.133 1.067,0.285c0,-0.006 0,-0.038 0,-0.095l-0.01,-0.085c0,-0.165 -0.047,-0.332 -0.142,-0.503c-0.095,-0.171 -0.217,-0.324 -0.365,-0.46c-0.149,-0.136 -0.308,-0.247 -0.479,-0.332c-0.171,-0.085 -0.335,-0.128 -0.493,-0.128c-0.064,0 -0.119,0.01 -0.166,0.029c-0.048,0.018 -0.094,0.042 -0.138,0.071c-0.044,0.028 -0.087,0.053 -0.128,0.076c-0.041,0.022 -0.09,0.033 -0.147,0.033c-0.013,0 -0.019,-0.003 -0.019,-0.01c-0.006,-0.006 -0.013,-0.012 -0.019,-0.019c-0.013,-0.012 -0.03,-0.028 -0.052,-0.047c-0.022,-0.019 -0.033,-0.032 -0.033,-0.038c0,-0.114 0.02,-0.212 0.061,-0.294c0.041,-0.082 0.098,-0.149 0.171,-0.199c0.073,-0.051 0.155,-0.09 0.247,-0.119c0.091,-0.028 0.188,-0.043 0.289,-0.043c0.253,0.026 0.495,0.103 0.726,0.233c0.23,0.129 0.442,0.292 0.635,0.488c0.193,0.196 0.362,0.422 0.508,0.678c0.145,0.257 0.267,0.522 0.365,0.797c0.098,0.275 0.163,0.552 0.194,0.83c0.038,0.291 0.041,0.563 0.01,0.816c-0.007,0 -0.026,-0.002 -0.057,-0.005c-0.032,-0.003 -0.067,-0.006 -0.105,-0.009c-0.038,-0.004 -0.069,-0.008 -0.094,-0.015l-0.048,-0.009c-0.133,-0.297 -0.281,-0.538 -0.446,-0.721c-0.164,-0.183 -0.327,-0.327 -0.488,-0.431c-0.161,-0.105 -0.312,-0.178 -0.451,-0.219c-0.139,-0.041 -0.253,-0.071 -0.341,-0.09c-0.095,0 -0.207,0.007 -0.337,0.019c-0.129,0.013 -0.264,0.035 -0.403,0.067c-0.139,0.031 -0.28,0.074 -0.422,0.128c-0.142,0.053 -0.269,0.118 -0.379,0.194c-0.111,0.076 -0.2,0.166 -0.266,0.27c-0.066,0.105 -0.1,0.226 -0.1,0.366c0,0.151 0.06,0.279 0.181,0.384c0.12,0.104 0.265,0.189 0.436,0.256c0.171,0.066 0.345,0.112 0.522,0.137c0.177,0.026 0.319,0.038 0.426,0.038c0.177,0 0.351,-0.009 0.522,-0.028c0.171,-0.019 0.34,-0.041 0.508,-0.067c0.167,-0.025 0.333,-0.047 0.497,-0.066c0.165,-0.019 0.329,-0.028 0.494,-0.028c0.012,0 0.034,0 0.066,0c0.032,0 0.065,0.001 0.1,0.004c0.034,0.004 0.066,0.005 0.095,0.005c0.028,0 0.049,0 0.061,0c0.051,0.019 0.079,0.048 0.086,0.085c0.006,0.038 0.009,0.076 0.009,0.114c0,0.038 -0.039,0.079 -0.119,0.124c-0.079,0.044 -0.181,0.088 -0.308,0.132c-0.126,0.045 -0.267,0.09 -0.422,0.138c-0.155,0.047 -0.303,0.087 -0.446,0.118c-0.142,0.032 -0.275,0.059 -0.398,0.081c-0.123,0.022 -0.21,0.033 -0.261,0.033c-0.265,0 -0.547,-0.022 -0.844,-0.066c-0.297,-0.044 -0.569,-0.125 -0.816,-0.242c-0.246,-0.117 -0.45,-0.28 -0.612,-0.488c-0.161,-0.209 -0.241,-0.478 -0.241,-0.807Zm1.062,-4.164c0,-0.025 0.016,-0.063 0.047,-0.113c0.032,-0.051 0.068,-0.105 0.109,-0.162c0.042,-0.057 0.087,-0.104 0.138,-0.142c0.038,-0.038 0.076,-0.057 0.114,-0.057c0.101,0 0.188,0.018 0.261,0.052c0.072,0.035 0.131,0.078 0.175,0.128c0.044,0.051 0.078,0.108 0.1,0.171c0.022,0.063 0.033,0.123 0.033,0.18c0,0.038 -0.016,0.081 -0.048,0.128c-0.031,0.048 -0.072,0.092 -0.123,0.133c-0.05,0.041 -0.106,0.076 -0.166,0.104c-0.06,0.029 -0.122,0.043 -0.185,0.043c-0.069,0 -0.133,-0.017 -0.189,-0.052c-0.057,-0.035 -0.105,-0.076 -0.143,-0.123c-0.038,-0.048 -0.068,-0.098 -0.09,-0.152c-0.022,-0.054 -0.033,-0.1 -0.033,-0.138Zm1.518,0c0,-0.025 0.014,-0.063 0.042,-0.113c0.029,-0.051 0.067,-0.105 0.114,-0.162c0.047,-0.057 0.095,-0.104 0.142,-0.142c0.048,-0.038 0.087,-0.057 0.119,-0.057c0.095,0 0.177,0.018 0.246,0.052c0.07,0.035 0.129,0.078 0.176,0.128c0.047,0.051 0.082,0.108 0.104,0.171c0.022,0.063 0.033,0.123 0.033,0.18c0,0.038 -0.015,0.081 -0.047,0.128c-0.032,0.048 -0.071,0.092 -0.118,0.133c-0.048,0.041 -0.105,0.076 -0.171,0.104c-0.067,0.029 -0.128,0.043 -0.185,0.043c-0.07,0 -0.133,-0.017 -0.19,-0.052c-0.057,-0.035 -0.104,-0.076 -0.142,-0.123c-0.038,-0.048 -0.068,-0.098 -0.09,-0.152c-0.022,-0.054 -0.033,-0.1 -0.033,-0.138Z" style="fill:#fff;fill-rule:nonzero;"/><path d="M37.695,8.878c0,-0.057 0.02,-0.093 0.061,-0.109c0.041,-0.016 0.087,-0.024 0.138,-0.024c0.038,0 0.065,0.01 0.081,0.029c0.015,0.019 0.026,0.041 0.033,0.066c0.006,0.025 0.016,0.049 0.028,0.071c0.013,0.022 0.035,0.034 0.067,0.034c0.088,0 0.196,-0.035 0.322,-0.105c0.127,-0.069 0.264,-0.145 0.413,-0.227c0.148,-0.083 0.306,-0.159 0.474,-0.228c0.167,-0.07 0.333,-0.104 0.498,-0.104c0.215,0 0.412,0.055 0.593,0.166c0.18,0.11 0.341,0.257 0.483,0.441c0.143,0.183 0.264,0.388 0.366,0.616c0.101,0.228 0.186,0.46 0.256,0.697c0.069,0.237 0.12,0.468 0.151,0.693c0.032,0.224 0.048,0.419 0.048,0.583c0,0.057 -0.005,0.142 -0.014,0.256c-0.01,0.114 -0.026,0.228 -0.048,0.342c-0.022,0.113 -0.058,0.213 -0.109,0.298c-0.05,0.086 -0.114,0.128 -0.19,0.128c-0.012,0 -0.034,-0.001 -0.066,-0.004c-0.032,-0.003 -0.063,-0.01 -0.095,-0.019c-0.031,-0.01 -0.058,-0.021 -0.08,-0.033c-0.023,-0.013 -0.034,-0.032 -0.034,-0.057c0.057,-0.487 0.057,-0.944 0,-1.371c-0.057,-0.427 -0.148,-0.801 -0.275,-1.124c-0.126,-0.322 -0.281,-0.579 -0.464,-0.768c-0.184,-0.19 -0.38,-0.285 -0.589,-0.285c-0.196,0 -0.379,0.032 -0.55,0.095c-0.17,0.063 -0.319,0.155 -0.445,0.275c-0.127,0.12 -0.227,0.266 -0.299,0.436c-0.073,0.171 -0.109,0.358 -0.109,0.56c0,0.202 0.019,0.403 0.057,0.602c0.038,0.2 0.08,0.399 0.128,0.598c0.047,0.199 0.09,0.4 0.128,0.602c0.038,0.203 0.057,0.405 0.057,0.607c-0.177,0 -0.326,-0.072 -0.446,-0.218c-0.12,-0.145 -0.217,-0.332 -0.289,-0.56c-0.073,-0.227 -0.13,-0.483 -0.171,-0.768c-0.041,-0.284 -0.07,-0.564 -0.086,-0.839c-0.015,-0.275 -0.023,-0.535 -0.023,-0.778c0,-0.243 0,-0.435 0,-0.574Z" style="fill:#fff;fill-rule:nonzero;"/><path d="M42.485,9.295c0,-0.025 0,-0.072 0,-0.142c0,-0.069 0.001,-0.142 0.004,-0.218c0.004,-0.076 0.005,-0.149 0.005,-0.218c0,-0.07 0,-0.117 0,-0.142c-0.025,-0.196 0.032,-0.294 0.171,-0.294c0.063,0 0.117,0.015 0.161,0.047c0.044,0.032 0.085,0.079 0.123,0.142c-0.019,0.329 -0.004,0.647 0.043,0.954c0.048,0.306 0.101,0.61 0.161,0.91c0.06,0.3 0.117,0.602 0.171,0.906c0.054,0.303 0.081,0.62 0.081,0.948c0,0.089 -0.027,0.177 -0.081,0.266c-0.054,0.089 -0.134,0.133 -0.242,0.133c-0.082,0 -0.153,-0.071 -0.213,-0.214c-0.06,-0.142 -0.112,-0.322 -0.157,-0.54c-0.044,-0.218 -0.082,-0.46 -0.114,-0.726c-0.031,-0.265 -0.055,-0.52 -0.071,-0.763c-0.015,-0.244 -0.027,-0.462 -0.033,-0.655c-0.006,-0.193 -0.009,-0.324 -0.009,-0.394Zm-0.484,-2.38c0,-0.076 0.022,-0.125 0.066,-0.147c0.045,-0.022 0.101,-0.033 0.171,-0.033c0.044,-0.007 0.103,0.02 0.176,0.08c0.072,0.06 0.132,0.128 0.18,0.204c0.047,0.076 0.074,0.145 0.08,0.209c0.007,0.076 -0.041,0.12 -0.142,0.133l-0.047,0c-0.095,0 -0.174,-0.007 -0.237,-0.019c-0.064,-0.013 -0.113,-0.034 -0.147,-0.062c-0.035,-0.029 -0.061,-0.071 -0.076,-0.128c-0.016,-0.057 -0.024,-0.136 -0.024,-0.237Z" style="fill:#fff;fill-rule:nonzero;"/><path d="M43.86,8.878c0,-0.057 0.021,-0.093 0.062,-0.109c0.041,-0.016 0.087,-0.024 0.137,-0.024c0.038,0 0.065,0.01 0.081,0.029c0.016,0.019 0.027,0.041 0.033,0.066c0.006,0.025 0.016,0.049 0.028,0.071c0.013,0.022 0.035,0.034 0.067,0.034c0.088,0 0.196,-0.035 0.322,-0.105c0.127,-0.069 0.264,-0.145 0.413,-0.227c0.149,-0.083 0.307,-0.159 0.474,-0.228c0.168,-0.07 0.334,-0.104 0.498,-0.104c0.215,0 0.413,0.055 0.593,0.166c0.18,0.11 0.341,0.257 0.484,0.441c0.142,0.183 0.264,0.388 0.365,0.616c0.101,0.228 0.186,0.46 0.256,0.697c0.07,0.237 0.12,0.468 0.152,0.693c0.031,0.224 0.047,0.419 0.047,0.583c0,0.057 -0.005,0.142 -0.014,0.256c-0.01,0.114 -0.025,0.228 -0.048,0.342c-0.022,0.113 -0.058,0.213 -0.109,0.298c-0.05,0.086 -0.113,0.128 -0.189,0.128c-0.013,0 -0.035,-0.001 -0.067,-0.004c-0.031,-0.003 -0.063,-0.01 -0.095,-0.019c-0.031,-0.01 -0.058,-0.021 -0.08,-0.033c-0.022,-0.013 -0.033,-0.032 -0.033,-0.057c0.057,-0.487 0.057,-0.944 0,-1.371c-0.057,-0.427 -0.149,-0.801 -0.275,-1.124c-0.127,-0.322 -0.282,-0.579 -0.465,-0.768c-0.184,-0.19 -0.38,-0.285 -0.588,-0.285c-0.196,0 -0.38,0.032 -0.55,0.095c-0.171,0.063 -0.32,0.155 -0.446,0.275c-0.127,0.12 -0.226,0.266 -0.299,0.436c-0.073,0.171 -0.109,0.358 -0.109,0.56c0,0.202 0.019,0.403 0.057,0.602c0.038,0.2 0.08,0.399 0.128,0.598c0.047,0.199 0.09,0.4 0.128,0.602c0.038,0.203 0.057,0.405 0.057,0.607c-0.177,0 -0.326,-0.072 -0.446,-0.218c-0.12,-0.145 -0.216,-0.332 -0.289,-0.56c-0.073,-0.227 -0.13,-0.483 -0.171,-0.768c-0.041,-0.284 -0.069,-0.564 -0.085,-0.839c-0.016,-0.275 -0.024,-0.535 -0.024,-0.778c0,-0.243 0,-0.435 0,-0.574Z" style="fill:#fff;fill-rule:nonzero;"/><path d="M46.781,15.214c-0.025,-0.088 -0.023,-0.167 0.005,-0.237c0.029,-0.07 0.068,-0.126 0.119,-0.171c0.05,-0.044 0.106,-0.072 0.166,-0.085c0.06,-0.013 0.11,-0.005 0.151,0.024c0.042,0.028 0.067,0.08 0.076,0.156c0.01,0.076 -0.011,0.18 -0.061,0.313c0,0.139 0.058,0.275 0.175,0.408c0.117,0.133 0.269,0.253 0.455,0.36c0.187,0.108 0.391,0.206 0.612,0.294c0.222,0.089 0.437,0.165 0.645,0.228c0.209,0.063 0.395,0.111 0.56,0.142c0.152,0.032 0.265,0.048 0.341,0.048c0.158,0 0.293,-0.041 0.403,-0.124c0.111,-0.082 0.206,-0.189 0.285,-0.322c0.079,-0.133 0.142,-0.283 0.19,-0.451c0.047,-0.167 0.083,-0.335 0.109,-0.502c0.025,-0.168 0.041,-0.331 0.047,-0.489c0.006,-0.158 0.01,-0.291 0.01,-0.398c0,-0.051 -0.005,-0.144 -0.015,-0.28c-0.009,-0.136 -0.023,-0.292 -0.042,-0.469c-0.019,-0.177 -0.041,-0.361 -0.067,-0.551c-0.025,-0.189 -0.053,-0.366 -0.085,-0.531c-0.032,-0.164 -0.065,-0.297 -0.1,-0.398c-0.034,-0.101 -0.071,-0.152 -0.109,-0.152c-0.063,0 -0.137,0.019 -0.223,0.057c-0.085,0.038 -0.174,0.079 -0.265,0.123c-0.092,0.045 -0.185,0.086 -0.28,0.124c-0.095,0.038 -0.187,0.057 -0.275,0.057c-0.177,0 -0.351,-0.038 -0.522,-0.114c-0.17,-0.076 -0.318,-0.174 -0.441,-0.294c-0.123,-0.12 -0.223,-0.263 -0.299,-0.427c-0.075,-0.165 -0.113,-0.335 -0.113,-0.512c0,-0.279 0.055,-0.563 0.166,-0.854c0.11,-0.291 0.262,-0.556 0.455,-0.797c0.193,-0.24 0.42,-0.436 0.683,-0.588c0.262,-0.152 0.542,-0.227 0.839,-0.227c0.228,0.063 0.413,0.207 0.555,0.431c0.142,0.225 0.253,0.501 0.332,0.83c0.079,0.329 0.136,0.694 0.171,1.096c0.035,0.401 0.058,0.811 0.071,1.228c0.013,0.417 0.024,0.827 0.033,1.228c0.01,0.402 0.033,0.767 0.071,1.096c0,0.145 -0.008,0.318 -0.023,0.517c-0.016,0.199 -0.043,0.403 -0.081,0.612c-0.038,0.208 -0.09,0.415 -0.157,0.621c-0.066,0.205 -0.153,0.389 -0.26,0.55c-0.108,0.161 -0.239,0.291 -0.394,0.389c-0.155,0.098 -0.334,0.147 -0.536,0.147c-0.164,0 -0.362,-0.019 -0.593,-0.057c-0.231,-0.038 -0.471,-0.098 -0.721,-0.18c-0.249,-0.083 -0.498,-0.184 -0.744,-0.304c-0.247,-0.12 -0.468,-0.258 -0.664,-0.412c-0.196,-0.155 -0.354,-0.329 -0.474,-0.522c-0.121,-0.193 -0.181,-0.403 -0.181,-0.631Zm1.992,-4.335c0,0.114 0.018,0.223 0.052,0.328c0.035,0.104 0.086,0.197 0.152,0.28c0.067,0.082 0.149,0.147 0.247,0.194c0.098,0.047 0.207,0.071 0.327,0.071c0.322,0 0.568,-0.063 0.735,-0.19c0.168,-0.126 0.283,-0.284 0.346,-0.474c0.064,-0.19 0.095,-0.392 0.095,-0.607c-0.006,-0.221 -0.016,-0.42 -0.028,-0.597c0,-0.089 -0.007,-0.178 -0.019,-0.266c-0.013,-0.089 -0.038,-0.171 -0.076,-0.247c-0.038,-0.076 -0.09,-0.136 -0.157,-0.18c-0.066,-0.044 -0.15,-0.066 -0.251,-0.066c-0.209,0 -0.402,0.058 -0.579,0.175c-0.177,0.117 -0.327,0.263 -0.45,0.437c-0.123,0.173 -0.22,0.363 -0.289,0.569c-0.07,0.205 -0.105,0.396 -0.105,0.573Z" style="fill:#fff;fill-rule:nonzero;"/><path id="tooltip-text" d="M59.46,0.052l10.11,2.913c0.698,0.201 1.101,0.93 0.9,1.628l-2.185,7.583c-0.201,0.698 -0.93,1.1 -1.628,0.899l-2.528,-0.728l-5.312,1.799l0.257,-3.256l-2.527,-0.728c-0.698,-0.201 -1.101,-0.93 -0.9,-1.628l2.185,-7.583c0.201,-0.698 0.93,-1.1 1.628,-0.899Zm0.086,2.078l-0.365,1.263l8.847,2.549l0.364,-1.263l-8.846,-2.549Zm-0.729,2.527l-0.364,1.264l6.319,1.821l0.364,-1.264l-6.319,-1.821Zm-0.728,2.528l-0.364,1.263l7.583,2.185l0.364,-1.263l-7.583,-2.185Z" style="fill:#fff;"/></g></svg>