<?xml version="1.0" encoding="UTF-8" standalone="no"?><!DOCTYPE svg PUBLIC "-//W3C//DTD SVG 1.1//EN" "http://www.w3.org/Graphics/SVG/1.1/DTD/svg11.dtd"><svg width="100%" height="100%" viewBox="0 0 121 121" version="1.1" xmlns="http://www.w3.org/2000/svg" xmlns:xlink="http://www.w3.org/1999/xlink" xml:space="preserve" xmlns:serif="http://www.serif.com/" style="fill-rule:evenodd;clip-rule:evenodd;stroke-linejoin:round;stroke-miterlimit:1.41421;"><path id="Icon" d="M37.29,20.653l-14.342,8.031l8.031,-14.342l-8.031,-14.342l14.342,8.032l14.341,-8.032l-8.031,14.342l8.031,14.342l-14.341,-8.031Zm68.84,56.218l14.342,-8.031l-8.032,14.341l8.032,14.342l-14.342,-8.031l-14.342,8.031l8.032,-14.342l-8.032,-14.341l14.342,8.031Zm14.342,-76.871l-8.032,14.342l8.032,14.341l-14.342,-8.031l-14.342,8.031l8.032,-14.341l-8.032,-14.342l14.342,8.031l14.342,-8.031Zm-49.663,61.832l13.969,-13.969l-12.167,-12.174l-13.969,13.975l12.167,12.168Zm5.898,-31.466l13.401,13.401c2.243,2.237 2.243,5.869 0,8.112l-66.913,66.912c-2.243,2.237 -5.875,2.237 -8.112,0l-13.401,-13.401c-2.243,-2.243 -2.243,-5.874 0,-8.111l66.913,-66.913c2.243,-2.243 5.874,-2.243 8.112,0Z" style="fill:#3c93f0;fill-rule:nonzero;"/></svg>