<?xml version="1.0" encoding="UTF-8" standalone="no"?><!DOCTYPE svg PUBLIC "-//W3C//DTD SVG 1.1//EN" "http://www.w3.org/Graphics/SVG/1.1/DTD/svg11.dtd"><svg width="100%" height="100%" viewBox="0 0 64 64" version="1.1" xmlns="http://www.w3.org/2000/svg" xmlns:xlink="http://www.w3.org/1999/xlink" xml:space="preserve" xmlns:serif="http://www.serif.com/" style="fill-rule:evenodd;clip-rule:evenodd;stroke-linejoin:round;stroke-miterlimit:1.41421;"><path id="Icon" d="M22.4,31.2c-2.208,0 -4,1.792 -4,4c0,2.208 1.792,4 4,4c2.208,0 4,-1.792 4,-4c0,-2.208 -1.792,-4 -4,-4Zm19.2,0c-2.208,0 -4,1.792 -4,4c0,2.208 1.792,4 4,4c2.208,0 4,-1.792 4,-4c0,-2.208 -1.792,-4 -4,-4Zm-9.6,-31.2c-17.664,0 -32,14.336 -32,32c0,17.664 14.336,32 32,32c17.664,0 32,-14.336 32,-32c0,-17.664 -14.336,-32 -32,-32Zm0,57.6c-14.112,0 -25.6,-11.488 -25.6,-25.6c0,-0.928 0.064,-1.856 0.16,-2.752c7.552,-3.36 13.536,-9.536 16.672,-17.184c5.792,8.192 15.328,13.536 26.112,13.536c2.496,0 4.896,-0.288 7.2,-0.832c0.672,2.272 1.056,4.704 1.056,7.232c0,14.112 -11.488,25.6 -25.6,25.6Z" style="fill:#3c93f0;fill-rule:nonzero;"/></svg>