<?xml version="1.0" standalone="no"?>
<!DOCTYPE svg PUBLIC "-//W3C//DTD SVG 20010904//EN"
 "http://www.w3.org/TR/2001/REC-SVG-20010904/DTD/svg10.dtd">
<svg version="1.0" xmlns="http://www.w3.org/2000/svg"
 width="700.000000pt" height="700.000000pt" viewBox="0 0 700.000000 700.000000"
 preserveAspectRatio="xMidYMid meet">
<metadata>
Created by potrace 1.11, written by Peter Selinger 2001-2013
</metadata>
<g transform="translate(0.000000,700.000000) scale(0.100000,-0.100000)"
fill="#000000" stroke="none">
<path d="M3180 6994 c-998 -89 -1867 -561 -2472 -1344 -363 -471 -596 -1034
-684 -1660 -26 -179 -26 -691 0 -870 88 -627 311 -1167 683 -1658 499 -658
1247 -1124 2063 -1286 258 -52 355 -60 675 -60 320 0 417 8 675 60 951 188
1789 781 2286 1616 244 411 390 835 461 1338 25 178 25 672 0 850 -78 557
-259 1042 -549 1478 -560 839 -1420 1376 -2433 1518 -106 14 -600 27 -705 18z
m677 -1865 c798 -230 1473 -429 1500 -443 28 -13 73 -50 101 -80 64 -70 92
-143 94 -240 1 -65 -24 -159 -312 -1156 -172 -597 -322 -1110 -333 -1140 -14
-39 -38 -73 -81 -116 -77 -77 -147 -106 -256 -107 -67 0 -116 12 -442 106
-202 59 -372 107 -379 107 -7 0 -345 -113 -752 -251 -407 -137 -742 -248 -745
-245 -4 5 51 759 64 866 l5 45 -363 104 c-385 110 -443 131 -501 183 -88 79
-139 224 -118 335 20 101 632 2209 657 2260 29 61 110 137 174 165 51 22 148
37 200 30 19 -3 688 -193 1487 -423z"/>
<path d="M2447 4952 c-8 -13 -97 -331 -97 -345 0 -9 393 -126 1245 -372 684
-197 1248 -358 1252 -359 7 0 116 355 110 360 -1 1 -560 162 -1242 358 -682
196 -1245 359 -1252 361 -7 2 -14 1 -16 -3z"/>
<path d="M2221 4173 c-11 -38 -34 -117 -51 -176 -18 -60 -28 -112 -24 -116 7
-6 1745 -509 1777 -515 9 -1 106 314 107 346 0 9 -8 19 -17 22 -176 51 -1763
506 -1767 506 -3 0 -14 -30 -25 -67z"/>
<path d="M1982 3343 c-29 -97 -51 -178 -49 -179 5 -5 2127 -614 2139 -614 9 0
31 61 65 177 29 98 51 178 50 179 -6 5 -2129 614 -2140 614 -9 0 -32 -62 -65
-177z"/>
</g>
</svg>
