<?xml version="1.0" encoding="UTF-8" standalone="no"?><!DOCTYPE svg PUBLIC "-//W3C//DTD SVG 1.1//EN" "http://www.w3.org/Graphics/SVG/1.1/DTD/svg11.dtd"><svg width="100%" height="100%" viewBox="0 0 83 64" version="1.1" xmlns="http://www.w3.org/2000/svg" xmlns:xlink="http://www.w3.org/1999/xlink" xml:space="preserve" xmlns:serif="http://www.serif.com/" style="fill-rule:evenodd;clip-rule:evenodd;stroke-linejoin:round;stroke-miterlimit:1.41421;"><path id="Icon" d="M0,0l0,5.995c0,16.603 8.829,31.112 22.013,39.196l0,18.809l59.996,0l0,-8.009c0,-10.625 -21.329,-15.994 -32.013,-15.994c0,0 -0.665,0 -0.995,0c-19.003,0 -34.997,-15.994 -34.997,-34.002l0,-5.995m35.992,0c-8.824,0 -15.994,7.169 -15.994,15.994c0,8.849 7.17,16.018 15.994,16.018c8.85,0 15.994,-7.169 15.994,-16.018c0,-8.825 -7.144,-15.994 -15.994,-15.994Z" style="fill:#3c93f0;fill-rule:nonzero;"/></svg>