<svg viewBox="0 0 190 190" xmlns="http://www.w3.org/2000/svg" xmlns:xlink="http://www.w3.org/1999/xlink"><g> <g transform="translate(-61 -613)"><mask id="a"><use xlink:href="#path0_fill" fill="#fff" transform="translate(61 613)"/></mask><g mask="url(#a)"><use xlink:href="#path1_stroke_2x" transform="translate(61 613)" fill="#9EA1A6" style="mix-blend-mode:normal"/></g></g><g style="mix-blend-mode:normal" opacity=".5"><g style="mix-blend-mode:normal" transform="translate(-61 -613)"><mask id="b"><use xlink:href="#path2_fill" fill="#fff" transform="translate(111 663)"/></mask><g mask="url(#b)"><use xlink:href="#path3_stroke_2x" transform="translate(111 663)" fill="#C6C8CC" style="mix-blend-mode:normal"/></g></g><use xlink:href="#path4_stroke" transform="translate(51 96.5)" fill="#C6C8CC" style="mix-blend-mode:normal"/><use xlink:href="#path5_stroke" transform="translate(68 77)" fill="#C6C8CC" style="mix-blend-mode:normal"/></g></g><defs><path id="path0_fill" d="M190 95c0 52.467-42.533 95-95 95S0 147.467 0 95 42.533 0 95 0s95 42.533 95 95z"/><path id="path1_stroke_2x" d="M188 95c0 51.362-41.638 93-93 93v4c53.572 0 97-43.428 97-97h-4zm-93 93c-51.362 0-93-41.638-93-93h-4c0 53.572 43.428 97 97 97v-4zM2 95C2 43.638 43.638 2 95 2v-4C41.428-2-2 41.428-2 95h4zM95 2c51.362 0 93 41.638 93 93h4c0-53.572-43.428-97-97-97v4z"/><path id="path2_fill" d="M0 3a3 3 0 013-3h84a3 3 0 013 3v84a3 3 0 01-3 3H3a3 3 0 01-3-3V3z"/><path id="path3_stroke_2x" d="M3 2h84v-4H3v4zm85 1v84h4V3h-4zm-1 85H3v4h84v-4zM2 87V3h-4v84h4zM3-2a5 5 0 00-5 5h4a1 1 0 011-1v-4zm84 4a1 1 0 011 1h4a5 5 0 00-5-5v4zm1 85a1 1 0 01-1 1v4a5 5 0 005-5h-4zM3 88a1 1 0 01-1-1h-4a5 5 0 005 5v-4z"/><path id="path4_stroke" d="M-.46 18.613a1 1 0 00.92 1.774l-.92-1.774zM26 6l.515-.857a1 1 0 00-.976-.03L26 6zm16.81 10.1l-.514.857a1 1 0 001.069-.024l-.554-.833zM67 0l.684-.73a1 1 0 00-1.238-.102L67 0zm20.316 20.43a1 1 0 101.368-1.46l-1.368 1.46zM.46 20.386l26-13.5-.922-1.774-26 13.5.922 1.774zm25.024-13.53l16.81 10.1 1.03-1.714-16.81-10.1-1.03 1.714zm17.88 10.076l24.19-16.1-1.11-1.665-24.188 16.1 1.108 1.665zM66.315.729l21 19.7 1.37-1.458-21-19.7-1.37 1.458z"/><path id="path5_stroke" d="M14 7.5A6.5 6.5 0 017.5 14v2A8.5 8.5 0 0016 7.5h-2zM7.5 14A6.5 6.5 0 011 7.5h-2A8.5 8.5 0 007.5 16v-2zM1 7.5A6.5 6.5 0 017.5 1v-2A8.5 8.5 0 00-1 7.5h2zM7.5 1A6.5 6.5 0 0114 7.5h2A8.5 8.5 0 007.5-1v2z"/></defs></svg>