<svg viewBox="0 0 117 36" xmlns="http://www.w3.org/2000/svg"><path d="M0 35.219V17.714h6.533c1.447 0 2.712.23 3.797.691 1.085.46 1.993 1.084 2.725 1.873a7.808 7.808 0 011.651 2.774c.37 1.06.555 2.19.555 3.39 0 1.331-.205 2.535-.616 3.612-.411 1.076-.999 1.997-1.763 2.761-.764.764-1.685 1.356-2.761 1.775-1.077.419-2.273.629-3.588.629H0zm11.144-8.777c0-.773-.103-1.475-.308-2.108a4.756 4.756 0 00-.9-1.64 3.935 3.935 0 00-1.455-1.06c-.575-.246-1.224-.369-1.948-.369h-2.49v10.404h2.49c.74 0 1.398-.132 1.973-.395a3.983 3.983 0 001.442-1.097 4.996 4.996 0 00.888-1.652 6.728 6.728 0 00.308-2.083zm5.769-8.728h4.043v17.505h-4.043zm11.415 0h3.649l6.385 17.505H34.22l-1.356-3.92h-5.448l-1.332 3.92h-4.142l6.386-17.505zm3.871 10.799l-2.047-6.188-2.095 6.188h4.142zm7.15 6.706V17.714h4.043v13.955h8.481v3.55H39.349zm20.241.148c-1.299 0-2.482-.255-3.55-.764a8.754 8.754 0 01-2.737-2.01 9.153 9.153 0 01-1.763-2.847 8.976 8.976 0 01-.628-3.304c0-1.151.217-2.26.653-3.328a8.863 8.863 0 011.824-2.823 8.902 8.902 0 012.774-1.948c1.068-.485 2.235-.727 3.501-.727 1.298 0 2.482.254 3.55.764a8.645 8.645 0 012.737 2.022 9.11 9.11 0 011.75 2.86 8.995 8.995 0 01.617 3.254c0 1.15-.218 2.26-.654 3.328a8.952 8.952 0 01-1.812 2.823 8.904 8.904 0 01-2.761 1.96c-1.069.493-2.236.74-3.501.74zm-4.561-8.876c0 .674.098 1.328.296 1.96.197.633.489 1.196.875 1.689.386.493.867.888 1.442 1.184.575.295 1.233.443 1.973.443.772 0 1.446-.156 2.021-.468a4.386 4.386 0 001.43-1.22 5.344 5.344 0 00.851-1.702 6.723 6.723 0 00-.013-3.895 4.975 4.975 0 00-.887-1.677 4.412 4.412 0 00-1.442-1.158c-.567-.288-1.221-.432-1.96-.432-.773 0-1.443.152-2.01.456a4.486 4.486 0 00-1.43 1.196 5.059 5.059 0 00-.863 1.689 6.728 6.728 0 00-.283 1.935zm26.923 7.002c-1.332 1.233-2.869 1.849-4.611 1.849a8.202 8.202 0 01-3.254-.653 8.144 8.144 0 01-2.675-1.837c-.765-.789-1.369-1.738-1.812-2.847-.444-1.11-.666-2.33-.666-3.662 0-1.199.222-2.334.666-3.402a8.613 8.613 0 011.836-2.786 8.718 8.718 0 012.774-1.874 8.634 8.634 0 013.452-.69c1.627 0 3.049.341 4.265 1.023 1.216.682 2.128 1.615 2.736 2.798l-3.007 2.269a4.305 4.305 0 00-1.714-1.837 4.737 4.737 0 00-2.428-.653c-.674 0-1.286.135-1.837.406a4.228 4.228 0 00-1.418 1.134 5.324 5.324 0 00-.912 1.689 6.503 6.503 0 00-.32 2.071c0 .756.115 1.455.345 2.096.23.641.55 1.196.961 1.664.411.469.9.834 1.467 1.097a4.43 4.43 0 001.886.395c1.578 0 3-.732 4.266-2.195v-.542h-3.403v-2.934h6.756v9.147h-3.353v-1.726zm17.578-1.824v3.55H87.228V17.714h12.08v3.551h-8.037v3.402h6.903v3.279h-6.903v3.723h8.259zm5.769-6.46v10.01h-4.043V17.714h3.156l8.16 10.281V17.714h4.044v17.505h-3.255l-8.062-10.01zM2.79 10.889c0-.063.012-.131.038-.204a.926.926 0 01.104-.209.636.636 0 01.161-.166.346.346 0 01.199-.066c0 .411.073.735.219.972.145.237.346.419.602.546.256.126.548.211.877.256.329.044.683.076 1.063.095.126-.007.292-.012.498-.015.205-.003.403-.025.592-.066a1.29 1.29 0 00.484-.204c.133-.095.196-.24.19-.436 0-.089-.003-.168-.01-.237a.621.621 0 00-.042-.185.457.457 0 00-.114-.157 1.046 1.046 0 00-.223-.152L4.611 9.125a1.638 1.638 0 01-.294-.214 1.248 1.248 0 01-.237-.284 1.557 1.557 0 01-.152-.332 1.119 1.119 0 01-.057-.346c0-.241.065-.437.194-.588.13-.152.291-.274.484-.366.193-.091.402-.156.626-.194.225-.038.432-.057.622-.057.088 0 .202.008.341.024s.288.039.446.071c.158.031.314.073.469.123.155.051.293.116.413.195s.22.17.299.275a.587.587 0 01.118.365.377.377 0 01-.27.047 1.031 1.031 0 01-.28-.104 5.24 5.24 0 01-.294-.171 16.087 16.087 0 00-.313-.19 1.654 1.654 0 00-.341-.151.946.946 0 00-.38-.038c-.12 0-.275.006-.465.019a2.847 2.847 0 00-.554.09 1.3 1.3 0 00-.465.218.488.488 0 00-.195.413c0 .17.06.327.181.469.12.142.283.278.488.408.206.13.436.253.692.37.257.117.516.237.778.36.263.124.519.252.768.384.25.133.468.279.655.437.187.158.332.327.436.507.105.18.141.384.109.612a.998.998 0 01-.294.588 1.658 1.658 0 01-.626.384 3.342 3.342 0 01-.844.18c-.31.029-.629.027-.958-.004a5.868 5.868 0 01-.977-.18 3.997 3.997 0 01-.882-.356 2.883 2.883 0 01-.683-.522 1.491 1.491 0 01-.379-.678zm6.089.446c0-.399.07-.734.209-1.006.139-.272.324-.49.555-.654.231-.165.499-.285.806-.361.307-.075.628-.113.963-.113a2.42 2.42 0 011.479.502c.203.158.364.351.484.579.12.228.18.487.18.778 0 .253-.047.46-.142.621a1.012 1.012 0 01-.389.379 1.794 1.794 0 01-.545.195 3.256 3.256 0 01-.612.057c-.202 0-.409-.01-.621-.029a2.089 2.089 0 01-.584-.133 1.035 1.035 0 01-.436-.313c-.114-.139-.171-.335-.171-.588.133 0 .261.027.384.081.124.054.249.111.375.171.127.06.253.115.38.166.12.057.249.085.388.085.102 0 .236-.009.404-.028.167-.019.325-.056.474-.109.148-.054.276-.128.384-.223a.462.462 0 00.161-.361c0-.215-.047-.401-.142-.559a1.255 1.255 0 00-.37-.394 1.972 1.972 0 00-1.081-.327 3.62 3.62 0 00-.522.08 6.811 6.811 0 00-.398.105c-.14.041-.268.091-.385.151a1.192 1.192 0 00-.289.204.355.355 0 00-.114.256v.114a13.786 13.786 0 01.048.631c.006.117.016.22.028.308a23.135 23.135 0 00.086.622l.104.711a90.032 90.032 0 00.266 1.66l.118.706c.035.209.062.361.081.456 0 .012.001.023.004.033a.057.057 0 01.005.024v.009l-.009.019v.019a.746.746 0 01-.086.095 1.27 1.27 0 00-.095.076h-.056c-.064 0-.13-.059-.2-.176a2.974 2.974 0 01-.213-.474 9.392 9.392 0 01-.218-.688 23.055 23.055 0 01-.403-1.631 37.736 37.736 0 01-.152-.759 10.933 10.933 0 01-.1-.607 3.301 3.301 0 01-.033-.36zm5.919 1.242a5.253 5.253 0 01-.361-.825 9.222 9.222 0 01-.256-.901 11.045 11.045 0 01-.166-.887 8.798 8.798 0 01-.08-.782c0-.045-.003-.094-.01-.147a1.013 1.013 0 01-.005-.166.704.704 0 01.029-.162.324.324 0 01.081-.132h.018c.007 0 .01-.002.01-.005s.003-.005.009-.005c.007 0 .01.002.01.005s.006.005.019.005h.019c.013.006.044.019.095.038a.32.32 0 01.095.047c.113-.038.23-.084.351-.138.12-.053.241-.104.365-.151.123-.048.248-.087.374-.119.127-.032.25-.047.37-.047.089 0 .166.003.233.009.066.006.132.018.199.033.066.016.137.035.213.057.076.022.165.049.266.081.05.038.096.074.137.109a.807.807 0 01.114.119.478.478 0 01.081.161.876.876 0 01.028.246 1.092 1.092 0 01-.355-.023 5.596 5.596 0 01-.427-.109 4.755 4.755 0 00-.46-.114 1.899 1.899 0 00-.456-.038.845.845 0 00-.407.123.853.853 0 00-.351.342 1.933 1.933 0 00-.057.54c.006.177.028.35.066.517.038.168.087.335.147.503.06.167.117.335.171.503.054.167.103.333.147.498.044.164.073.332.085.502 0 .064-.034.131-.104.204a.32.32 0 01-.237.109zm3.86-5.492c0-.139.032-.26.095-.365A.854.854 0 0119 6.459a1.317 1.317 0 01.721-.218c.101 0 .196.029.284.086a.931.931 0 01.228.204c.063.079.114.164.152.256a.694.694 0 01-.029.607.854.854 0 01-.218.261 1.016 1.016 0 01-.398.189 2.747 2.747 0 01.886.607c.193.196.362.422.508.678.145.257.267.522.365.797.098.275.163.552.194.83.038.291.042.563.01.816l-.057-.005a7.009 7.009 0 00-.104-.009.981.981 0 01-.105-.015l-.038-.009a2.75 2.75 0 00-.445-.721 2.502 2.502 0 00-.489-.431 1.742 1.742 0 00-.45-.219 4.958 4.958 0 00-.342-.09 3.254 3.254 0 00-1.162.214 1.729 1.729 0 00-.379.194.948.948 0 00-.266.27.67.67 0 00-.099.366c0 .151.06.279.18.384.12.104.265.189.436.256.171.066.345.112.522.137.177.026.319.038.427.038.177 0 .351-.009.521-.028.171-.019.34-.041.508-.067.167-.025.333-.047.498-.066.164-.019.329-.028.493-.028h.066c.032 0 .065.001.1.004a.782.782 0 00.09.005h.066c.051.019.08.048.086.085a.73.73 0 01.009.114c0 .038-.039.079-.118.124a1.98 1.98 0 01-.309.132c-.126.045-.267.09-.422.138a5.82 5.82 0 01-.445.118 9.166 9.166 0 01-.399.081c-.123.022-.21.033-.261.033-.265 0-.547-.022-.844-.066a2.865 2.865 0 01-.815-.242 1.66 1.66 0 01-.612-.488c-.162-.209-.242-.478-.242-.807a1.18 1.18 0 01.095-.37c.057-.139.145-.275.265-.407a1.8 1.8 0 01.456-.356c.183-.104.4-.179.649-.223.25-.044.535-.047.854-.01a4.45 4.45 0 011.067.285v-.095l-.009-.085a1.03 1.03 0 00-.143-.503 1.806 1.806 0 00-.365-.46 2.09 2.09 0 00-.479-.332 1.107 1.107 0 00-.493-.128.444.444 0 00-.166.029.722.722 0 00-.138.071 2.668 2.668 0 01-.128.076.307.307 0 01-.147.033c-.012 0-.019-.003-.019-.01l-.019-.019a1.065 1.065 0 00-.052-.047c-.022-.019-.033-.032-.033-.038a.65.65 0 01.062-.294.523.523 0 01.17-.199.803.803 0 01.242-.114l.057-.019a.51.51 0 01-.133-.095.748.748 0 01-.237-.579zm.304.01c0 .158.047.277.142.356a.59.59 0 00.389.118.343.343 0 00.171-.033c.069-.028.137-.065.204-.109a.615.615 0 00.17-.171.35.35 0 00.067-.218.383.383 0 00-.109-.232.974.974 0 00-.351-.223c-.089 0-.174.008-.256.023a.616.616 0 00-.219.086.479.479 0 00-.151.156.478.478 0 00-.057.247zm3.547 5.207a1.923 1.923 0 01.038-.275 2.444 2.444 0 00.038-.275v-.1c0-.053.002-.115.005-.184.003-.07.005-.143.005-.219v-.322c0-.063-.002-.128-.005-.195a3.924 3.924 0 01-.005-.17v-.081a9.427 9.427 0 00-.109-.925 51.901 51.901 0 00-.171-.972c-.06-.322-.117-.639-.171-.948-.053-.31-.093-.595-.118-.854.057-.152.118-.204.185-.157.066.048.134.16.204.337.069.177.139.397.208.659.07.263.132.53.185.802.054.272.103.528.147.768.038.24.07.427.095.56.013.012.037.019.071.019h.072a.517.517 0 00.332-.114c.094-.076.185-.172.27-.289.085-.117.169-.244.251-.38.082-.136.168-.261.256-.374a1.52 1.52 0 01.294-.29.61.61 0 01.37-.118c.089 0 .143.027.162.08.019.054.025.116.019.185a3.68 3.68 0 00-.304.275c-.114.114-.236.237-.365.37-.13.133-.259.272-.389.418a5.12 5.12 0 00-.342.422c-.098.136-.18.267-.246.393a.732.732 0 00-.1.332c0 .139.046.266.138.38.091.114.208.218.351.313.142.095.302.175.479.242a5.73 5.73 0 001.034.279c.151.026.278.038.379.038.057.013.089.045.095.095.006.051.009.098.009.142 0 .095-.03.165-.09.209a.578.578 0 01-.218.095 1.218 1.218 0 01-.266.028h-.232c-.139 0-.299-.044-.479-.132a6.002 6.002 0 01-.522-.29 9.848 9.848 0 01-.441-.289c-.126-.088-.215-.133-.265-.133-.101 0-.169.049-.204.147a1.369 1.369 0 00-.071.318c-.013.114-.033.22-.062.318-.028.098-.09.147-.185.147a.413.413 0 01-.228-.067c-.069-.044-.104-.117-.104-.218zm4.733-2.988h-.265c-.127 0-.258-.011-.394-.033a1.427 1.427 0 01-.37-.109c-.111-.05-.166-.123-.166-.218 0-.025.005-.062.014-.109.01-.047.04-.071.09-.071l.977-.086c.026-.234.045-.425.057-.573.013-.149.016-.288.01-.418-.007-.129-.014-.265-.024-.408a17.818 17.818 0 01-.024-.554c0-.045.01-.08.029-.105a.18.18 0 01.071-.057.424.424 0 01.095-.028.427.427 0 01.08-.01.23.23 0 01.119.038.53.53 0 01.185.214c.019.041.028.08.028.118l.076 1.774.816.038a.466.466 0 01.299.062c.091.053.14.153.147.298a.448.448 0 01-.275.147c-.108.016-.22.022-.337.019a6.652 6.652 0 00-.346 0 .58.58 0 00-.304.09c0 .038.003.143.01.313l.019.607c.006.234.014.484.023.75a66.841 66.841 0 01.043 1.574c-.145.089-.262.081-.351-.023a1.2 1.2 0 01-.213-.465 4.181 4.181 0 01-.114-.721 11.898 11.898 0 01-.038-.816c-.003-.269-.002-.517.005-.744.006-.228.016-.392.028-.494zm2.941 3.263a5.073 5.073 0 01-.361-.825 9.222 9.222 0 01-.256-.901 10.62 10.62 0 01-.247-1.669c0-.045-.003-.094-.009-.147a1.013 1.013 0 01-.005-.166.654.654 0 01.029-.162.312.312 0 01.08-.132h.019c.007 0 .01-.002.01-.005s.003-.005.009-.005c.007 0 .01.002.01.005s.006.005.019.005h.019c.012.006.044.019.094.038a.295.295 0 01.095.047c.114-.038.231-.084.351-.138.12-.053.242-.104.365-.151.124-.048.249-.087.375-.119.127-.032.25-.047.37-.047.089 0 .166.003.232.009.067.006.133.018.2.033.066.016.137.035.213.057.076.022.164.049.266.081.05.038.096.074.137.109a.807.807 0 01.114.119.478.478 0 01.081.161.876.876 0 01.028.246c-.101.013-.22.005-.356-.023a5.575 5.575 0 01-.426-.109 4.703 4.703 0 00-.461-.114 1.89 1.89 0 00-.455-.038.852.852 0 00-.408.123.865.865 0 00-.351.342 2.01 2.01 0 00-.057.54c.007.177.029.35.067.517.038.168.087.335.147.503a12.647 12.647 0 01.318 1.001c.044.164.072.332.085.502 0 .064-.035.131-.104.204a.32.32 0 01-.237.109zm2.504-1.603c.006-.107.038-.23.094-.37.057-.139.146-.275.266-.407.12-.133.272-.252.455-.356.184-.104.4-.179.65-.223.25-.044.534-.047.854-.01a4.45 4.45 0 011.067.285v-.095l-.01-.085c0-.165-.047-.332-.142-.503a1.828 1.828 0 00-.365-.46 2.09 2.09 0 00-.479-.332 1.107 1.107 0 00-.493-.128.44.44 0 00-.166.029.694.694 0 00-.138.071 2.668 2.668 0 01-.128.076.307.307 0 01-.147.033c-.013 0-.019-.003-.019-.01l-.019-.019-.052-.047c-.022-.019-.033-.032-.033-.038a.65.65 0 01.061-.294.517.517 0 01.171-.199.898.898 0 01.247-.119.98.98 0 01.289-.043c.253.026.495.103.726.233.23.129.442.292.635.488s.362.422.508.678c.145.257.267.522.365.797.098.275.163.552.194.83.038.291.041.563.01.816l-.057-.005a7.212 7.212 0 00-.105-.009.598.598 0 01-.094-.015l-.048-.009a2.75 2.75 0 00-.446-.721 2.47 2.47 0 00-.488-.431 1.747 1.747 0 00-.451-.219 4.954 4.954 0 00-.341-.09 3.254 3.254 0 00-1.162.214 1.729 1.729 0 00-.379.194.935.935 0 00-.266.27.671.671 0 00-.1.366c0 .151.06.279.181.384.12.104.265.189.436.256.171.066.345.112.522.137.177.026.319.038.426.038.177 0 .351-.009.522-.028.171-.019.34-.041.508-.067.167-.025.333-.047.497-.066.165-.019.329-.028.494-.028h.066c.032 0 .065.001.1.004a.808.808 0 00.095.005h.061c.051.019.079.048.086.085a.73.73 0 01.009.114c0 .038-.039.079-.119.124a1.964 1.964 0 01-.308.132c-.126.045-.267.09-.422.138a5.72 5.72 0 01-.446.118 9.137 9.137 0 01-.398.081c-.123.022-.21.033-.261.033-.265 0-.547-.022-.844-.066a2.882 2.882 0 01-.816-.242 1.676 1.676 0 01-.612-.488c-.161-.209-.241-.478-.241-.807zm1.062-4.164c0-.025.016-.063.047-.113.032-.051.068-.105.109-.162a.667.667 0 01.138-.142c.038-.038.076-.057.114-.057a.551.551 0 01.436.18.546.546 0 01.133.351.235.235 0 01-.048.128.566.566 0 01-.123.133.787.787 0 01-.166.104.421.421 0 01-.185.043.351.351 0 01-.189-.052.556.556 0 01-.266-.413zm1.518 0c0-.025.014-.063.042-.113a1.16 1.16 0 01.256-.304c.048-.038.087-.057.119-.057a.551.551 0 01.526.351.546.546 0 01.033.18.233.233 0 01-.047.128.656.656 0 01-.289.237.466.466 0 01-.185.043.355.355 0 01-.19-.052.55.55 0 01-.232-.275.379.379 0 01-.033-.138zm2.428 2.068c0-.057.02-.093.061-.109a.377.377 0 01.138-.024c.038 0 .065.01.081.029a.186.186 0 01.033.066.292.292 0 00.028.071c.013.022.035.034.067.034a.697.697 0 00.322-.105l.413-.227c.148-.083.306-.159.474-.228.167-.07.333-.104.498-.104.215 0 .412.055.593.166.18.11.341.257.483.441.143.183.264.388.366.616.101.228.186.46.256.697a4.854 4.854 0 01.199 1.276 3.626 3.626 0 01-.062.598.916.916 0 01-.109.298c-.05.086-.114.128-.19.128a.533.533 0 01-.241-.056.062.062 0 01-.034-.057 5.512 5.512 0 000-1.371 4.817 4.817 0 00-.275-1.124 2.294 2.294 0 00-.464-.768c-.184-.19-.38-.285-.589-.285-.196 0-.379.032-.55.095a1.287 1.287 0 00-.744.711 1.412 1.412 0 00-.109.56c0 .202.019.403.057.602.038.2.08.399.128.598.047.199.09.4.128.602.038.203.057.405.057.607a.555.555 0 01-.446-.218 1.649 1.649 0 01-.289-.56 4.705 4.705 0 01-.171-.768 9.903 9.903 0 01-.086-.839 14.364 14.364 0 01-.023-.778v-.574zm4.79.417v-.142c0-.069.001-.142.004-.218.004-.076.005-.149.005-.218v-.142c-.025-.196.032-.294.171-.294.063 0 .117.015.161.047a.476.476 0 01.123.142c-.019.329-.004.647.043.954.048.306.101.61.161.91.06.3.117.602.171.906.054.303.081.62.081.948a.508.508 0 01-.081.266.264.264 0 01-.242.133c-.082 0-.153-.071-.213-.214a2.941 2.941 0 01-.157-.54 9.31 9.31 0 01-.114-.726c-.031-.265-.055-.52-.071-.763a22.248 22.248 0 01-.042-1.049zm-.484-2.38c0-.076.022-.125.066-.147a.386.386 0 01.171-.033c.044-.007.103.02.176.08.072.06.132.128.18.204a.494.494 0 01.08.209c.007.076-.041.12-.142.133h-.047c-.095 0-.174-.007-.237-.019a.334.334 0 01-.147-.062.24.24 0 01-.076-.128.917.917 0 01-.024-.237zm1.859 1.963c0-.057.021-.093.062-.109a.375.375 0 01.137-.024c.038 0 .065.01.081.029a.158.158 0 01.033.066.292.292 0 00.028.071c.013.022.035.034.067.034a.697.697 0 00.322-.105l.413-.227a4.52 4.52 0 01.474-.228c.168-.07.334-.104.498-.104.215 0 .413.055.593.166.18.11.341.257.484.441.142.183.264.388.365.616.101.228.186.46.256.697a4.861 4.861 0 01.199 1.276 3.626 3.626 0 01-.062.598.916.916 0 01-.109.298c-.05.086-.113.128-.189.128a.551.551 0 01-.242-.056.062.062 0 01-.033-.057 5.512 5.512 0 000-1.371 4.868 4.868 0 00-.275-1.124 2.311 2.311 0 00-.465-.768c-.184-.19-.38-.285-.588-.285-.196 0-.38.032-.55.095a1.282 1.282 0 00-.745.711 1.412 1.412 0 00-.109.56c0 .202.019.403.057.602.038.2.08.399.128.598.047.199.09.4.128.602.038.203.057.405.057.607a.555.555 0 01-.446-.218 1.667 1.667 0 01-.289-.56 4.705 4.705 0 01-.171-.768 9.895 9.895 0 01-.085-.839 13.448 13.448 0 01-.024-.778v-.574z"/><path d="M46.781 15.214a.36.36 0 01.005-.237.453.453 0 01.119-.171.366.366 0 01.166-.085.183.183 0 01.151.024c.042.028.067.08.076.156a.698.698 0 01-.061.313c0 .139.058.275.175.408.117.133.269.253.455.36.187.108.391.206.612.294.222.089.437.165.645.228.209.063.395.111.56.142.152.032.265.048.341.048a.65.65 0 00.403-.124c.111-.082.206-.189.285-.322a1.9 1.9 0 00.19-.451 4.29 4.29 0 00.156-.991c.006-.158.01-.291.01-.398a11.675 11.675 0 00-.057-.749 19.084 19.084 0 00-.067-.551 8.997 8.997 0 00-.085-.531 3.04 3.04 0 00-.1-.398c-.034-.101-.071-.152-.109-.152a.567.567 0 00-.223.057 9.753 9.753 0 00-.265.123 4.106 4.106 0 01-.28.124.74.74 0 01-.275.057c-.177 0-.351-.038-.522-.114a1.505 1.505 0 01-.441-.294 1.433 1.433 0 01-.299-.427 1.223 1.223 0 01-.113-.512c0-.279.055-.563.166-.854.11-.291.262-.556.455-.797.193-.24.42-.436.683-.588.262-.152.542-.227.839-.227a.948.948 0 01.555.431c.142.225.253.501.332.83.079.329.136.694.171 1.096.035.401.058.811.071 1.228.013.417.024.827.033 1.228.01.402.033.767.071 1.096a6.2 6.2 0 01-.104 1.129c-.038.208-.09.415-.157.621a2.217 2.217 0 01-.26.55 1.327 1.327 0 01-.394.389.982.982 0 01-.536.147c-.164 0-.362-.019-.593-.057a4.836 4.836 0 01-.721-.18 6.09 6.09 0 01-.744-.304 3.657 3.657 0 01-.664-.412 2.04 2.04 0 01-.474-.522 1.164 1.164 0 01-.181-.631zm1.992-4.335c0 .114.018.223.052.328a.915.915 0 00.152.28.713.713 0 00.574.265c.322 0 .568-.063.735-.19a.96.96 0 00.346-.474c.064-.19.095-.392.095-.607-.006-.221-.016-.42-.028-.597 0-.089-.007-.178-.019-.266a.808.808 0 00-.076-.247.451.451 0 00-.157-.18.444.444 0 00-.251-.066c-.209 0-.402.058-.579.175a1.685 1.685 0 00-.45.437c-.123.173-.22.363-.289.569a1.78 1.78 0 00-.105.573zM59.46.052l10.11 2.913c.698.201 1.101.93.9 1.628l-2.185 7.583c-.201.698-.93 1.1-1.628.899l-2.528-.728-5.312 1.799.257-3.256-2.527-.728a1.315 1.315 0 01-.9-1.628L57.832.951c.201-.698.93-1.1 1.628-.899zm.086 2.078l-.365 1.263 8.847 2.549.364-1.263-8.846-2.549zm-.729 2.527l-.364 1.264 6.319 1.821.364-1.264-6.319-1.821zm-.728 2.528l-.364 1.263 7.583 2.185.364-1.263-7.583-2.185z"/></svg>