<svg viewBox="0 0 121 121" xmlns="http://www.w3.org/2000/svg" fill-rule="evenodd" clip-rule="evenodd" stroke-linejoin="round" stroke-miterlimit="1.414"><path d="M37.29 20.653l-14.342 8.031 8.031-14.342L22.948 0 37.29 8.032 51.631 0 43.6 14.342l8.031 14.342-14.341-8.031zm68.84 56.218l14.342-8.031-8.032 14.341 8.032 14.342-14.342-8.031-14.342 8.031 8.032-14.342-8.032-14.341 14.342 8.031zM120.472 0l-8.032 14.342 8.032 14.341-14.342-8.031-14.342 8.031 8.032-14.341L91.788 0l14.342 8.031L120.472 0zM70.809 61.832l13.969-13.969-12.167-12.174-13.969 13.975 12.167 12.168zm5.898-31.466l13.401 13.401a5.73 5.73 0 010 8.112l-66.913 66.912a5.742 5.742 0 01-8.112 0L1.682 105.39a5.73 5.73 0 010-8.111l66.913-66.913a5.73 5.73 0 018.112 0z" fill="#3c93f0" fill-rule="nonzero"/></svg>