<svg viewBox="0 0 34 27" xmlns="http://www.w3.org/2000/svg" fill-rule="evenodd" clip-rule="evenodd" stroke-linejoin="round" stroke-miterlimit="1.414"><path d="M16.792 0A23.749 23.749 0 00.405 6.535 1.392 1.392 0 000 7.528c0 .392.153.743.405.995l3.472 3.47c.252.252.601.405.993.405.378 0 .727-.154.979-.391a15.986 15.986 0 013.724-2.59 1.39 1.39 0 00.782-1.258V3.82a20.453 20.453 0 016.437-1.02c2.239 0 4.41.348 6.439 1.006v4.34c0 .545.32 1.034.782 1.258a16.445 16.445 0 013.738 2.589c.252.252.601.391.979.391.392 0 .741-.153.993-.405l3.472-3.47c.252-.252.405-.603.405-.995s-.169-.727-.421-.979A23.75 23.75 0 0016.792 0zM12.6 5.597v4.2s-8.4 7-8.4 11.2v5.6h25.2v-5.6c0-4.2-8.4-11.2-8.4-11.2v-4.2h-2.8v2.8h-2.8v-2.8h-2.8zm4.2 7a5.6 5.6 0 110 11.2 5.6 5.6 0 010-11.2zm0 2.1a3.5 3.5 0 100 7 3.5 3.5 0 000-7z" fill-rule="nonzero"/></svg>