<svg version="1" xmlns="http://www.w3.org/2000/svg" width="933.333" height="933.333" viewBox="0 0 700.000000 700.000000"><path d="M313 1.6c-93.1 9.9-177.4 56-236.1 129.1C36.5 181 11.6 239.3 2.4 305c-2.4 17.8-3 60.8-1 79.8 4.7 44.6 15.1 80.3 35.1 120.7 36.6 74 97 131.8 172.9 165.4 29.5 13 61.2 21.8 95.6 26.6 15.5 2.2 58.2 3.1 74.7 1.6 83-7.5 158.6-42.6 216.8-100.6 30.1-30 50.5-58.5 69-96.7 16.8-34.8 26.4-66.7 32-106.9 2.5-17.7 3.1-60.7 1.1-79.7-7.4-69.2-32.8-131.3-75.6-184.6C569.8 64.4 495.2 20.1 411.5 5c-27.7-5-70.3-6.5-98.5-3.4zm169.3 155.9c19.1 4 35.7 19.6 41.1 38.5 1.1 3.7 4.1 37.6 9.1 102 7.8 101.1 7.8 102.3 4.1 113.1-5.7 16.7-21 30.9-37.9 35.3-2.9.8-53.7 5.1-113.4 9.7l-108.1 8.3L245 502c-17.6 20.7-33.5 38.5-35.3 39.5-5 3-13.4 2.7-18.4-.7-8.2-5.4-6.8 5.8-19.7-161.8-12.2-159.3-12-156.9-7.9-167.2 7.2-18.1 23.3-31.7 41-34.8 6.7-1.2 254.7-20.7 265.3-20.9 3 0 8.5.6 12.3 1.4z"/><path d="M339.2 202c-68.9 5.4-126.9 10.1-128.8 10.5-4.6.8-10.9 6.6-12.9 11.8-1.5 4-1.1 10.3 8 127.2 5.2 67.6 9.5 124.2 9.5 125.7 0 1.6.4 2.8.8 2.8.5 0 9.4-10 19.8-22.2 21.9-25.7 22.7-26.5 27.4-27.8 1.9-.5 53.6-4.7 114.9-9.4 124.8-9.6 117.8-8.6 122.5-16.9 1.3-2.3 2.6-5.3 2.9-6.7.4-1.4-2.7-45-6.7-97-5.6-72-7.7-95.3-8.9-97.5-3.4-6.6-10.5-10.6-18.4-10.4-2.6.1-61.2 4.5-130.1 9.9zM448 253.2c9.1 6.2 11.1 17.8 4.5 26.4-4.8 6.2-2.3 5.9-99.6 13.4-49.6 3.9-92.8 7-96.1 7-7.6 0-13-2.9-16.4-8.6-4.8-8.2-2-19.2 6.1-24 4.3-2.5 5.8-2.6 91.7-9.3 48-3.8 91.6-6.9 96.9-7 8.4-.1 10 .2 12.9 2.1zm5.8 73.5c8.4 5.5 10.6 16.6 4.9 25.1-4.8 7.3-.6 6.7-104.4 14.7-68.7 5.3-95.3 7.1-97.8 6.4-12.1-3.4-16.8-18.2-9-28.5 4.7-6.2 2.9-6 97.5-13.3 48.1-3.8 91.3-6.9 96-7 7.8-.1 9 .2 12.8 2.6z"/></svg>